<svg width="640" height="420" viewBox="0 0 640 420" fill="none" xmlns="http://www.w3.org/2000/svg">
  <defs>
    <linearGradient id="bg" x1="0" y1="0" x2="640" y2="420" gradientUnits="userSpaceOnUse">
      <stop stop-color="#ECFEFF"/>
      <stop offset="1" stop-color="#FFFFFF"/>
    </linearGradient>
  </defs>
  <rect width="640" height="420" rx="28" fill="url(#bg)"/>
  <rect x="120" y="170" width="400" height="110" rx="22" fill="#0B1220"/>
  <g fill="#334155">
    <rect x="160" y="210" width="26" height="18" rx="4"/>
    <rect x="194" y="210" width="26" height="18" rx="4"/>
    <rect x="228" y="210" width="26" height="18" rx="4"/>
    <rect x="262" y="210" width="26" height="18" rx="4"/>
    <rect x="296" y="210" width="26" height="18" rx="4"/>
    <rect x="330" y="210" width="26" height="18" rx="4"/>
    <rect x="364" y="210" width="26" height="18" rx="4"/>
    <rect x="398" y="210" width="26" height="18" rx="4"/>
  </g>
  <circle cx="470" cy="206" r="6" fill="#22C55E"/>
  <text x="60" y="330" fill="#0B1220" font-size="30" font-family="Inter, system-ui, -apple-system, Segoe UI, Roboto, Arial" font-weight="700">Gigabit Switch</text>
  <text x="60" y="364" fill="#0F766E" font-size="18" font-family="Inter, system-ui, -apple-system, Segoe UI, Roboto, Arial">Business grade</text>
</svg>
